<svg id="eEefO1Vrgcz1" xmlns="http://www.w3.org/2000/svg" xmlns:xlink="http://www.w3.org/1999/xlink" viewBox="0 0 500 436" shape-rendering="geometricPrecision" text-rendering="geometricPrecision"><g id="eEefO1Vrgcz2" transform="matrix(1.36 0 0 1.37 -90.3 -125.05)"><path id="eEefO1Vrgcz3" d="M70,405L70,95L430,95L430,405L70,405ZM100,145C111.04569,145,120,136.04569,120,125C120,113.95431,111.04569,105,100,105C88.95431,105,80,113.95431,80,125C80,136.04569,88.95431,145,100,145ZM150,145C161.04569,145,170,136.04569,170,125C170,113.95431,161.04569,105,150,105C138.95431,105,130,113.95431,130,125C130,136.04569,138.95431,145,150,145ZM200,145C211.04569,145,220,136.04569,220,125C220,113.95431,211.04569,105,200,105C188.95431,105,180,113.95431,180,125C180,136.04569,188.95431,145,200,145ZM250,145C261.04569,145,270,136.04569,270,125C270,113.95431,261.04569,105,250,105C238.95431,105,230,113.95431,230,125C230,136.04569,238.95431,145,250,145ZM300,145C311.04569,145,320,136.04569,320,125C320,113.95431,311.04569,105,300,105C288.95431,105,280,113.95431,280,125C280,136.04569,288.95431,145,300,145ZM350,145C361.04569,145,370,136.04569,370,125C370,113.95431,361.04569,105,350,105C338.95431,105,330,113.95431,330,125C330,136.04569,338.95431,145,350,145ZM100,195C111.04569,195,120,186.04569,120,175C120,163.95431,111.04569,155,100,155C88.95431,155,80,163.95431,80,175C80,186.04569,88.95431,195,100,195ZM150,195C161.04569,195,170,186.04569,170,175C170,163.95431,161.04569,155,150,155C138.95431,155,130,163.95431,130,175C130,186.04569,138.95431,195,150,195ZM200,195C211.04569,195,220,186.04569,220,175C220,163.95431,211.04569,155,200,155C188.95431,155,180,163.95431,180,175C180,186.04569,188.95431,195,200,195ZM400,145C411.04569,145,420,136.04569,420,125C420,113.95431,411.04569,105,400,105C388.95431,105,380,113.95431,380,125C380,136.04569,388.95431,145,400,145ZM250,195C261.04569,195,270,186.04569,270,175C270,163.95431,261.04569,155,250,155C238.95431,155,230,163.95431,230,175C230,186.04569,238.95431,195,250,195ZM300,195C311.04569,195,320,186.04569,320,175C320,163.95431,311.04569,155,300,155C288.95431,155,280,163.95431,280,175C280,186.04569,288.95431,195,300,195ZM350,195C361.04569,195,370,186.04569,370,175C370,163.95431,361.04569,155,350,155C338.95431,155,330,163.95431,330,175C330,186.04569,338.95431,195,350,195ZM400,195C411.04569,195,420,186.04569,420,175C420,163.95431,411.04569,155,400,155C388.95431,155,380,163.95431,380,175C380,186.04569,388.95431,195,400,195ZM100,245C111.04569,245,120,236.04569,120,225C120,213.95431,111.04569,205,100,205C88.95431,205,80,213.95431,80,225C80,236.04569,88.95431,245,100,245ZM150,245C161.04569,245,170,236.04569,170,225C170,213.95431,161.04569,205,150,205C138.95431,205,130,213.95431,130,225C130,236.04569,138.95431,245,150,245ZM200,245C211.04569,245,220,236.04569,220,225C220,213.95431,211.04569,205,200,205C188.95431,205,180,213.95431,180,225C180,236.04569,188.95431,245,200,245ZM250,245C261.04569,245,270,236.04569,270,225C270,213.95431,261.04569,205,250,205C238.95431,205,230,213.95431,230,225C230,236.04569,238.95431,245,250,245ZM300,245C311.04569,245,320,236.04569,320,225C320,213.95431,311.04569,205,300,205C288.95431,205,280,213.95431,280,225C280,236.04569,288.95431,245,300,245ZM350,245C361.04569,245,370,236.04569,370,225C370,213.95431,361.04569,205,350,205C338.95431,205,330,213.95431,330,225C330,236.04569,338.95431,245,350,245ZM400,245C411.04569,245,420,236.04569,420,225C420,213.95431,411.04569,205,400,205C388.95431,205,380,213.95431,380,225C380,236.04569,388.95431,245,400,245ZM100,295C111.04569,295,120,286.04569,120,275C120,263.95431,111.04569,255,100,255C88.95431,255,80,263.95431,80,275C80,286.04569,88.95431,295,100,295ZM200,295C211.04569,295,220,286.04569,220,275C220,263.95431,211.04569,255,200,255C188.95431,255,180,263.95431,180,275C180,286.04569,188.95431,295,200,295ZM250,295C261.04569,295,270,286.04569,270,275C270,263.95431,261.04569,255,250,255C238.95431,255,230,263.95431,230,275C230,286.04569,238.95431,295,250,295ZM300,295C311.04569,295,320,286.04569,320,275C320,263.95431,311.04569,255,300,255C288.95431,255,280,263.95431,280,275C280,286.04569,288.95431,295,300,295ZM350,295C361.04569,295,370,286.04569,370,275C370,263.95431,361.04569,255,350,255C338.95431,255,330,263.95431,330,275C330,286.04569,338.95431,295,350,295ZM400,295C411.04569,295,420,286.04569,420,275C420,263.95431,411.04569,255,400,255C388.95431,255,380,263.95431,380,275C380,286.04569,388.95431,295,400,295ZM100,345C111.04569,345,120,336.04569,120,325C120,313.95431,111.04569,305,100,305C88.95431,305,80,313.95431,80,325C80,336.04569,88.95431,345,100,345ZM200,345C211.04569,345,220,336.04569,220,325C220,313.95431,211.04569,305,200,305C188.95431,305,180,313.95431,180,325C180,336.04569,188.95431,345,200,345ZM400,345C411.04569,345,420,336.04569,420,325C420,313.95431,411.04569,305,400,305C388.95431,305,380,313.95431,380,325C380,336.04569,388.95431,345,400,345Z" fill="rgb(187,34,176)" stroke="rgba(131,166,168,0.6)" stroke-width="3" stroke-miterlimit="5"/><circle id="eEefO1Vrgcz4" r="20" transform="matrix(1 0 0 1 150 275)" fill="rgb(255,0,0)" stroke="rgb(190,20,68)" stroke-width="5"/><circle id="eEefO1Vrgcz5" r="20" transform="matrix(1 0 0 1 150 325)" fill="rgb(38,255,0)" stroke="rgb(108,141,0)" stroke-width="5"/><circle id="eEefO1Vrgcz6" r="20" transform="matrix(1 0 0 1 250 325)" fill="rgb(38,255,0)" stroke="rgb(108,141,0)" stroke-width="5" stroke-miterlimit="1"/><circle id="eEefO1Vrgcz7" r="20" transform="matrix(1 0 0 1 300 325)" fill="rgb(38,255,0)" stroke="rgb(108,141,0)" stroke-width="5"/><circle id="eEefO1Vrgcz8" r="20" transform="matrix(1 0 0 1 350 325)" fill="rgb(255,0,0)" stroke="rgb(190,20,68)" stroke-width="5"/><circle id="eEefO1Vrgcz9" r="20" transform="matrix(1 0 0 1 100 375)" fill="rgb(255,0,0)" stroke="rgb(190,20,68)" stroke-width="5"/><circle id="eEefO1Vrgcz10" r="20" transform="matrix(1 0 0 1 150 375)" fill="rgb(38,255,0)" stroke="rgb(108,141,0)" stroke-width="5"/><circle id="eEefO1Vrgcz11" r="20" transform="matrix(1 0 0 1 200 375)" fill="rgb(255,0,0)" stroke="rgb(190,20,68)" stroke-width="5"/><circle id="eEefO1Vrgcz12" r="20" transform="matrix(1 0 0 1 250 375)" fill="rgb(255,0,0)" stroke="rgb(190,20,68)" stroke-width="5"/><circle id="eEefO1Vrgcz13" r="20" transform="matrix(1 0 0 1 300 375)" fill="rgb(38,255,0)" stroke="rgb(108,141,0)" stroke-width="5" stroke-dashoffset="1"/><circle id="eEefO1Vrgcz14" r="20" transform="matrix(1 0 0 1 350 375)" fill="rgb(38,255,0)" stroke="rgb(108,141,0)" stroke-width="5"/><circle id="eEefO1Vrgcz15" r="20" transform="matrix(1 0 0 1 400 375)" fill="rgb(255,0,0)" stroke="rgb(190,20,68)" stroke-width="5"/></g><rect id="eEefO1Vrgcz16" width="490" height="426" rx="0" ry="0" transform="matrix(1 0 0 1 5 5)" fill="none" stroke="rgb(38,32,190)" stroke-width="10"/></svg>