<svg id="elOXTK3w14j1" xmlns="http://www.w3.org/2000/svg" xmlns:xlink="http://www.w3.org/1999/xlink" viewBox="0 0 640 480" shape-rendering="geometricPrecision" text-rendering="geometricPrecision"><path id="elOXTK3w14j2" d="M252.44803,379.50504C263.20068,366.25498,272.95873,348.98759,280.17128,329.17127C292.52799,295.2215,294.35231,262.20031,286.87213,240.77713C296.86228,221.07109,308.10792,210,320,210C332.21984,210,343.75711,221.68977,353.95102,242.42613C347.1201,263.87266,349.1581,296.08088,361.20201,329.17127C368.05006,347.98615,377.19284,364.50322,387.30289,377.46563C388.20882,384.81236,389.04178,392.32886,389.79799,400L250.20201,400C250.88839,393.03718,251.63801,386.20175,252.44803,379.50504Z" fill="rgb(0,0,0)" stroke="rgb(0,0,0)" stroke-width="0"/><ellipse id="elOXTK3w14j3" rx="50" ry="50" transform="matrix(1 0 0 1 320 150)" fill="rgb(0,0,0)" stroke="rgb(0,0,0)" stroke-width="0"/><rect id="elOXTK3w14j4" width="118" height="27" rx="0" ry="0" transform="matrix(1 0 0 1 262 213)" fill="rgb(0,0,0)" stroke="rgb(0,0,0)" stroke-width="0"/><rect id="elOXTK3w14j5" width="60" height="25" rx="0" ry="0" transform="matrix(0.920505 -0.390731 0.390731 0.920505 251 217.443868)" fill="rgb(0,0,0)" stroke="rgb(0,0,0)" stroke-width="0"/><rect id="elOXTK3w14j6" width="40" height="20" rx="0" ry="0" transform="matrix(1 0 0 1 300 198)" fill="rgb(0,0,0)" stroke="rgb(0,0,0)" stroke-width="0"/><rect id="elOXTK3w14j7" width="60" height="25" rx="0" ry="0" transform="matrix(0.920505 0.390731 -0.390731 0.920505 334.768278 194)" fill="rgb(0,0,0)" stroke="rgb(0,0,0)" stroke-width="0"/></svg>