<svg id="ebmrNOiCvWQ1" xmlns="http://www.w3.org/2000/svg" xmlns:xlink="http://www.w3.org/1999/xlink" viewBox="0 0 640 480" shape-rendering="geometricPrecision" text-rendering="geometricPrecision"><g id="ebmrNOiCvWQ2" transform="matrix(1 0 0 1 60 49.99999)"><path id="ebmrNOiCvWQ3" d="M200,240L200,200L240,200L240,160L280,160L280,200L320,200L320,240L200,240Z" transform="matrix(0 -1 1 0 40 340)" fill="rgb(63,30,183)" stroke="none" stroke-width="0"/><path id="ebmrNOiCvWQ4" d="M100,370L100,250L140,250L140,330L180,330L180,370L100,370Z" transform="matrix(1 0 0 1 60 -10)" fill="rgb(40,158,58)" stroke="none" stroke-width="0"/><path id="ebmrNOiCvWQ5" d="M100,370L100,250L140,250L140,330L180,330L180,370L100,370Z" transform="matrix(-1 0 0 1 460 -10)" fill="rgb(85,85,149)" stroke="none" stroke-width="0"/><path id="ebmrNOiCvWQ6" d="M400,160L440,160L440,120L480,120L480,200L400,200L400,240L440,240L440,200L400,200L400,160Z" transform="matrix(1 0 0 1 -120 40)" fill="rgb(54,197,90)" stroke="none" stroke-width="0"/></g></svg>