<svg id="egGHx2jiRbq1" xmlns="http://www.w3.org/2000/svg" xmlns:xlink="http://www.w3.org/1999/xlink" viewBox="0 0 640 480" shape-rendering="geometricPrecision" text-rendering="geometricPrecision"><line id="egGHx2jiRbq2" x1="-32" y1="0" x2="448" y2="0" transform="matrix(1 0 0 1 112 160)" fill="none" stroke="rgb(63,87,135)" stroke-width="3"/><line id="egGHx2jiRbq3" x1="-32" y1="0" x2="448" y2="0" transform="matrix(0 1 -1 0 400 32)" fill="none" stroke="rgb(63,87,135)" stroke-width="3"/><line id="egGHx2jiRbq4" x1="-32" y1="0" x2="448" y2="0" transform="matrix(0 1 -1 0 240 32)" fill="none" stroke="rgb(63,87,135)" stroke-width="3"/><line id="egGHx2jiRbq5" x1="-32" y1="0" x2="448" y2="0" transform="matrix(1 0 0 1 112 320)" fill="none" stroke="rgb(63,87,135)" stroke-width="3"/><ellipse id="egGHx2jiRbq6" rx="60" ry="60" transform="matrix(1 0 0 1 160 240)" fill="none" stroke="rgb(255,0,0)" stroke-width="10"/><ellipse id="egGHx2jiRbq7" rx="60" ry="60" transform="matrix(1 0 0 1 320 400)" fill="none" stroke="rgb(255,0,0)" stroke-width="10"/><ellipse id="egGHx2jiRbq8" rx="60" ry="60" transform="matrix(1 0 0 1 480 80)" fill="none" stroke="rgb(255,0,0)" stroke-width="10"/><line id="egGHx2jiRbq9" x1="-64" y1="-64" x2="56" y2="56" transform="matrix(1 0 0 1 324 244)" fill="none" stroke="rgb(63,87,135)" stroke-width="10"/><line id="egGHx2jiRbq10" x1="-64" y1="-64" x2="56" y2="56" transform="matrix(1 0 0 1 484 244)" fill="none" stroke="rgb(63,87,135)" stroke-width="10"/><line id="egGHx2jiRbq11" x1="-64" y1="-64" x2="56" y2="56" transform="matrix(1 0 0 1 484 404)" fill="none" stroke="rgb(63,87,135)" stroke-width="10"/><line id="egGHx2jiRbq12" x1="-64" y1="-64" x2="56" y2="56" transform="matrix(-1 0 0 1 476 404)" fill="none" stroke="rgb(63,87,135)" stroke-width="10"/><line id="egGHx2jiRbq13" x1="-64" y1="-64" x2="56" y2="56" transform="matrix(-1 0 0 1 476 244)" fill="none" stroke="rgb(63,87,135)" stroke-width="10"/><line id="egGHx2jiRbq14" x1="-64" y1="-64" x2="56" y2="56" transform="matrix(-1 0 0 1 316 244)" fill="none" stroke="rgb(63,87,135)" stroke-width="10"/></svg>